<svg width="16" height="16" viewBox="0 0 16 16" fill="none" xmlns="http://www.w3.org/2000/svg">
<g id="Base/like">
<path id="Vector (Stroke)" d="M0.833984 6.33329C0.833984 4.03212 2.69946 2.16663 5.00065 2.16663C6.17913 2.16663 7.24324 2.65621 8.00065 3.44177C8.75806 2.65621 9.82217 2.16663 11.0007 2.16663C13.3018 2.16663 15.1673 4.03212 15.1673 6.33329C15.1673 8.35868 13.9785 10.2288 12.5643 11.657C11.1452 13.0901 9.41338 14.1661 8.15833 14.5832C8.05596 14.6172 7.94534 14.6172 7.84297 14.5832C6.58792 14.1661 4.85612 13.0901 3.43703 11.657C2.0228 10.2288 0.833984 8.35868 0.833984 6.33329ZM5.00065 3.16663C3.25175 3.16663 1.83398 4.5844 1.83398 6.33329C1.83398 7.97457 2.81184 9.60443 4.14761 10.9534C5.41507 12.2334 6.92797 13.1818 8.00065 13.5788C9.07332 13.1818 10.5862 12.2334 11.8537 10.9534C13.1895 9.60443 14.1673 7.97457 14.1673 6.33329C14.1673 4.5844 12.7495 3.16663 11.0007 3.16663C9.93007 3.16663 8.98339 3.69743 8.40946 4.51244C8.3158 4.64544 8.16331 4.72456 8.00065 4.72456C7.83799 4.72456 7.6855 4.64544 7.59184 4.51244C7.01791 3.69743 6.07124 3.16663 5.00065 3.16663Z" fill="#444444"/>
</g>
</svg>
