<svg width="18" height="18" viewBox="0 0 18 18" fill="none" xmlns="http://www.w3.org/2000/svg">
<g id="Group 10296">
<path id="Vector (Stroke)" fill-rule="evenodd" clip-rule="evenodd" d="M8.99829 2C9.18424 1.99952 9.35433 2.10469 9.437 2.27126L11.3395 6.1045L15.5821 6.72313C15.7658 6.74992 15.9184 6.87854 15.9759 7.05505C16.0335 7.23156 15.986 7.42542 15.8533 7.55531L12.7676 10.5773L13.5005 14.7765C13.5326 14.9603 13.4571 15.1464 13.3059 15.2559C13.1548 15.3654 12.9544 15.3792 12.7897 15.2914L8.99957 13.2713L5.21026 15.2914C5.04544 15.3793 4.84495 15.3654 4.69376 15.2558C4.54258 15.1461 4.46717 14.9598 4.49952 14.7759L5.23777 10.5773L2.14698 7.55561C2.01413 7.42573 1.96648 7.23172 2.02405 7.05507C2.08162 6.87842 2.23443 6.74974 2.4183 6.72308L6.6841 6.10451L8.56098 2.27351C8.64279 2.10652 8.81234 2.00048 8.99829 2Z" stroke="#333333" stroke-linejoin="round"/>
</g>
</svg>
